<svg width="1382" height="1024" viewBox="0 0 1382 1024" fill="none" xmlns="http://www.w3.org/2000/svg">
<mask id="mask0_36_852" style="mask-type:alpha" maskUnits="userSpaceOnUse" x="0" y="0" width="1382" height="1024">
<rect width="1381.39" height="1024" fill="url(#paint0_radial_36_852)"/>
</mask>
<g mask="url(#mask0_36_852)">
<g opacity="0.7">
<mask id="mask1_36_852" style="mask-type:alpha" maskUnits="userSpaceOnUse" x="-274" y="209" width="1894" height="853">
<rect x="-273.307" y="209" width="1892.35" height="853" fill="url(#paint1_radial_36_852)"/>
</mask>
<g mask="url(#mask1_36_852)">
<rect width="1892.35" height="853" transform="translate(-273.307 209)" fill="url(#paint2_radial_36_852)"/>
</g>
</g>
<rect x="0.633663" y="-0.633663" width="150.812" height="150.812" transform="matrix(1 0 0 -1 86.1782 963.733)" stroke="#884AFF" stroke-width="1.26733"/>
<rect x="0.633663" y="-0.633663" width="150.812" height="150.812" transform="matrix(1 0 0 -1 236.99 963.733)" stroke="#884AFF" stroke-width="1.26733"/>
<rect x="0.633663" y="-0.633663" width="150.812" height="150.812" transform="matrix(1 0 0 -1 387.802 963.733)" stroke="#884AFF" stroke-width="1.26733"/>
<rect x="0.633663" y="-0.633663" width="150.812" height="150.812" transform="matrix(1 0 0 -1 538.614 963.733)" stroke="#884AFF" stroke-width="1.26733"/>
<rect x="0.633663" y="-0.633663" width="150.812" height="150.812" transform="matrix(1 0 0 -1 689.426 963.733)" stroke="#884AFF" stroke-width="1.26733"/>
<rect x="0.633663" y="-0.633663" width="150.812" height="150.812" transform="matrix(1 0 0 -1 840.238 963.733)" stroke="#884AFF" stroke-width="1.26733"/>
<rect x="0.633663" y="-0.633663" width="150.812" height="150.812" transform="matrix(1 0 0 -1 991.05 963.733)" stroke="#884AFF" stroke-width="1.26733"/>
<rect x="0.633663" y="-0.633663" width="150.812" height="150.812" transform="matrix(1 0 0 -1 1141.86 963.733)" stroke="#884AFF" stroke-width="1.26733"/>
<rect x="0.633663" y="-0.633663" width="150.812" height="150.812" transform="matrix(1 0 0 -1 86.1782 812.921)" stroke="#884AFF" stroke-width="1.26733"/>
<rect x="0.633663" y="-0.633663" width="150.812" height="150.812" transform="matrix(1 0 0 -1 236.99 812.921)" fill="#884AFF" fill-opacity="0.2" stroke="#884AFF" stroke-width="1.26733"/>
<rect x="0.633663" y="-0.633663" width="150.812" height="150.812" transform="matrix(1 0 0 -1 387.802 812.921)" stroke="#884AFF" stroke-width="1.26733"/>
<rect x="0.633663" y="-0.633663" width="150.812" height="150.812" transform="matrix(1 0 0 -1 538.614 812.921)" stroke="#884AFF" stroke-width="1.26733"/>
<rect x="0.633663" y="-0.633663" width="150.812" height="150.812" transform="matrix(1 0 0 -1 689.426 812.921)" stroke="#884AFF" stroke-width="1.26733"/>
<rect x="0.633663" y="-0.633663" width="150.812" height="150.812" transform="matrix(1 0 0 -1 840.238 812.921)" fill="#884AFF" fill-opacity="0.2" stroke="#884AFF" stroke-width="1.26733"/>
<rect x="0.633663" y="-0.633663" width="150.812" height="150.812" transform="matrix(1 0 0 -1 991.05 812.921)" stroke="#884AFF" stroke-width="1.26733"/>
<rect x="0.633663" y="-0.633663" width="150.812" height="150.812" transform="matrix(1 0 0 -1 1141.86 812.921)" stroke="#884AFF" stroke-width="1.26733"/>
<rect x="0.633663" y="-0.633663" width="150.812" height="150.812" transform="matrix(1 0 0 -1 86.1782 662.109)" stroke="#884AFF" stroke-width="1.26733"/>
<rect x="0.633663" y="-0.633663" width="150.812" height="150.812" transform="matrix(1 0 0 -1 236.99 662.109)" stroke="#884AFF" stroke-width="1.26733"/>
<rect x="0.633663" y="-0.633663" width="150.812" height="150.812" transform="matrix(1 0 0 -1 387.802 662.109)" stroke="#884AFF" stroke-width="1.26733"/>
<rect x="0.633663" y="-0.633663" width="150.812" height="150.812" transform="matrix(1 0 0 -1 538.614 662.109)" fill="#884AFF" fill-opacity="0.2" stroke="#884AFF" stroke-width="1.26733"/>
<rect x="0.633663" y="-0.633663" width="150.812" height="150.812" transform="matrix(1 0 0 -1 689.426 662.109)" stroke="#884AFF" stroke-width="1.26733"/>
<rect x="0.633663" y="-0.633663" width="150.812" height="150.812" transform="matrix(1 0 0 -1 840.238 662.109)" stroke="#884AFF" stroke-width="1.26733"/>
<rect x="0.633663" y="-0.633663" width="150.812" height="150.812" transform="matrix(1 0 0 -1 991.05 662.109)" stroke="#884AFF" stroke-width="1.26733"/>
<rect x="0.633663" y="-0.633663" width="150.812" height="150.812" transform="matrix(1 0 0 -1 1141.86 662.109)" stroke="#884AFF" stroke-width="1.26733"/>
<rect x="0.633663" y="-0.633663" width="150.812" height="150.812" transform="matrix(1 0 0 -1 86.1782 511.297)" stroke="#884AFF" stroke-width="1.26733"/>
<rect x="0.633663" y="-0.633663" width="150.812" height="150.812" transform="matrix(1 0 0 -1 236.99 511.297)" stroke="#884AFF" stroke-width="1.26733"/>
<rect x="0.633663" y="-0.633663" width="150.812" height="150.812" transform="matrix(1 0 0 -1 387.802 511.297)" fill="#884AFF" fill-opacity="0.2" stroke="#884AFF" stroke-width="1.26733"/>
<rect x="0.633663" y="-0.633663" width="150.812" height="150.812" transform="matrix(1 0 0 -1 538.614 511.297)" stroke="#884AFF" stroke-width="1.26733"/>
<rect x="0.633663" y="-0.633663" width="150.812" height="150.812" transform="matrix(1 0 0 -1 689.426 511.297)" fill="#884AFF" fill-opacity="0.2" stroke="#884AFF" stroke-width="1.26733"/>
<rect x="0.633663" y="-0.633663" width="150.812" height="150.812" transform="matrix(1 0 0 -1 840.238 511.297)" stroke="#884AFF" stroke-width="1.26733"/>
<rect x="0.633663" y="-0.633663" width="150.812" height="150.812" transform="matrix(1 0 0 -1 991.05 511.297)" fill="#884AFF" fill-opacity="0.2" stroke="#884AFF" stroke-width="1.26733"/>
<rect x="0.633663" y="-0.633663" width="150.812" height="150.812" transform="matrix(1 0 0 -1 1141.86 511.297)" stroke="#884AFF" stroke-width="1.26733"/>
<rect x="0.633663" y="-0.633663" width="150.812" height="150.812" transform="matrix(1 0 0 -1 86.1782 360.485)" stroke="#884AFF" stroke-width="1.26733"/>
<rect x="0.633663" y="-0.633663" width="150.812" height="150.812" transform="matrix(1 0 0 -1 236.99 360.485)" stroke="#884AFF" stroke-width="1.26733"/>
<rect x="0.633663" y="-0.633663" width="150.812" height="150.812" transform="matrix(1 0 0 -1 387.802 360.485)" fill="#884AFF" fill-opacity="0.2" stroke="#884AFF" stroke-width="1.26733"/>
<rect x="0.633663" y="-0.633663" width="150.812" height="150.812" transform="matrix(1 0 0 -1 538.614 360.485)" stroke="#884AFF" stroke-width="1.26733"/>
<rect x="0.633663" y="-0.633663" width="150.812" height="150.812" transform="matrix(1 0 0 -1 689.426 360.485)" stroke="#884AFF" stroke-width="1.26733"/>
<rect x="0.633663" y="-0.633663" width="150.812" height="150.812" transform="matrix(1 0 0 -1 840.238 360.485)" stroke="#884AFF" stroke-width="1.26733"/>
<rect x="0.633663" y="-0.633663" width="150.812" height="150.812" transform="matrix(1 0 0 -1 991.05 360.485)" stroke="#884AFF" stroke-width="1.26733"/>
<rect x="0.633663" y="-0.633663" width="150.812" height="150.812" transform="matrix(1 0 0 -1 1141.86 360.485)" stroke="#884AFF" stroke-width="1.26733"/>
<rect x="0.633663" y="-0.633663" width="150.812" height="150.812" transform="matrix(1 0 0 -1 86.1782 209.673)" stroke="#884AFF" stroke-width="1.26733"/>
<rect x="0.633663" y="-0.633663" width="150.812" height="150.812" transform="matrix(1 0 0 -1 236.99 209.673)" stroke="#884AFF" stroke-width="1.26733"/>
<rect x="0.633663" y="-0.633663" width="150.812" height="150.812" transform="matrix(1 0 0 -1 387.802 209.673)" stroke="#884AFF" stroke-width="1.26733"/>
<rect x="0.633663" y="-0.633663" width="150.812" height="150.812" transform="matrix(1 0 0 -1 538.614 209.673)" stroke="#884AFF" stroke-width="1.26733"/>
<rect x="0.633663" y="-0.633663" width="150.812" height="150.812" transform="matrix(1 0 0 -1 689.426 209.673)" stroke="#884AFF" stroke-width="1.26733"/>
<rect x="0.633663" y="-0.633663" width="150.812" height="150.812" transform="matrix(1 0 0 -1 840.238 209.673)" stroke="#884AFF" stroke-width="1.26733"/>
<rect x="0.633663" y="-0.633663" width="150.812" height="150.812" transform="matrix(1 0 0 -1 991.05 209.673)" stroke="#884AFF" stroke-width="1.26733"/>
<rect x="0.633663" y="-0.633663" width="150.812" height="150.812" transform="matrix(1 0 0 -1 1141.86 209.673)" stroke="#884AFF" stroke-width="1.26733"/>
</g>
<defs>
<radialGradient id="paint0_radial_36_852" cx="0" cy="0" r="1" gradientUnits="userSpaceOnUse" gradientTransform="translate(690.693 512) rotate(90) scale(449.267 606.066)">
<stop stop-color="#DBFF75" stop-opacity="0.2"/>
<stop offset="1" stop-color="#DBFF75" stop-opacity="0"/>
</radialGradient>
<radialGradient id="paint1_radial_36_852" cx="0" cy="0" r="1" gradientUnits="userSpaceOnUse" gradientTransform="translate(672.869 635.5) rotate(24.264) scale(1037.86 777.647)">
<stop stop-color="white"/>
<stop offset="1" stop-opacity="0"/>
</radialGradient>
<radialGradient id="paint2_radial_36_852" cx="0" cy="0" r="1" gradientUnits="userSpaceOnUse" gradientTransform="translate(-125.139 289.411) rotate(10.8786) scale(1954.95 5298.64)">
<stop stop-color="#FF6868"/>
<stop offset="0.46875" stop-color="#FF95A8"/>
<stop offset="1" stop-color="#B843FF"/>
</radialGradient>
</defs>
</svg>
